<svg width="44" height="44" viewBox="0 0 44 44" fill="none" xmlns="http://www.w3.org/2000/svg">
<path d="M13.8001 28.8C14.9334 27.9333 16.2001 27.2502 17.6001 26.7507C19.0001 26.2511 20.4667 26.0009 22.0001 26C23.5334 26 25.0001 26.2502 26.4001 26.7507C27.8001 27.2511 29.0667 27.9342 30.2001 28.8C30.9779 27.8889 31.5836 26.8556 32.0174 25.7C32.4512 24.5444 32.6676 23.3111 32.6667 22C32.6667 19.0444 31.6281 16.5276 29.5507 14.4493C27.4734 12.3711 24.9565 11.3324 22.0001 11.3333C19.0445 11.3333 16.5276 12.3724 14.4494 14.4507C12.3712 16.5289 11.3325 19.0453 11.3334 22C11.3334 23.3111 11.5503 24.5444 11.9841 25.7C12.4179 26.8556 13.0232 27.8889 13.8001 28.8ZM22.0001 23.3333C20.689 23.3333 19.5832 22.8836 18.6827 21.984C17.7823 21.0844 17.3325 19.9787 17.3334 18.6667C17.3334 17.3556 17.7836 16.2498 18.6841 15.3493C19.5845 14.4489 20.6899 13.9991 22.0001 14C23.3112 14 24.417 14.4502 25.3174 15.3507C26.2179 16.2511 26.6676 17.3565 26.6667 18.6667C26.6667 19.9778 26.217 21.0836 25.3174 21.984C24.4179 22.8844 23.3121 23.3342 22.0001 23.3333ZM22.0001 35.3333C20.1556 35.3333 18.4223 34.9831 16.8001 34.2827C15.1779 33.5822 13.7667 32.6325 12.5667 31.4333C11.3667 30.2333 10.417 28.8222 9.71741 27.2C9.01786 25.5778 8.66764 23.8444 8.66675 22C8.66675 20.1556 9.01697 18.4222 9.71741 16.8C10.4179 15.1778 11.3676 13.7667 12.5667 12.5667C13.7667 11.3667 15.1779 10.4169 16.8001 9.71734C18.4223 9.01778 20.1556 8.66756 22.0001 8.66667C23.8445 8.66667 25.5779 9.01689 27.2001 9.71734C28.8223 10.4178 30.2334 11.3676 31.4334 12.5667C32.6334 13.7667 33.5836 15.1778 34.2841 16.8C34.9845 18.4222 35.3343 20.1556 35.3334 22C35.3334 23.8444 34.9832 25.5778 34.2827 27.2C33.5823 28.8222 32.6325 30.2333 31.4334 31.4333C30.2334 32.6333 28.8223 33.5836 27.2001 34.284C25.5779 34.9844 23.8445 35.3342 22.0001 35.3333Z" fill="#263238"/>
</svg>
