<svg width="64" height="64" viewBox="0 0 64 64" fill="none" xmlns="http://www.w3.org/2000/svg">
<rect width="64" height="64" fill="#041F47"/>
<g clip-path="url(#clip0_2956_3953)">
<path d="M50.8275 38.9116H49.612V34.3343C49.612 33.016 48.5433 31.9473 47.2249 31.9473C45.9066 31.9473 44.8379 33.0159 44.8379 34.3343V45.8327C44.8379 47.1509 45.9066 48.2197 47.2249 48.2197C48.5433 48.2197 49.612 47.151 49.612 45.8327V41.2553H50.8275C51.4747 41.2553 51.9994 40.7306 51.9994 40.0834C51.9994 39.4362 51.4747 38.9116 50.8275 38.9116Z" fill="white"/>
<path d="M31.1705 27.8164C31.3994 28.0453 31.6994 28.1594 31.9994 28.1594C32.2994 28.1594 32.5994 28.0453 32.8283 27.8164L39.6447 20.9992C40.6728 19.9711 41.1861 18.6211 41.1861 17.2703C41.1861 15.9203 40.6728 14.5695 39.6447 13.5422C37.5885 11.4859 34.2432 11.4859 32.1869 13.5422L31.9994 13.7297L31.8119 13.5422C29.7557 11.4859 26.4104 11.4859 24.3541 13.5422C22.2986 15.5977 22.2986 18.943 24.3541 20.9992L31.1705 27.8164Z" fill="white"/>
<path d="M16.7745 31.9473C15.4561 31.9473 14.3874 33.0159 14.3874 34.3343V38.9116H13.1719C12.5247 38.9116 12 39.4363 12 40.0835C12 40.7307 12.5247 41.2554 13.1719 41.2554H14.3874V45.8327C14.3874 47.151 15.4561 48.2198 16.7745 48.2198C18.0927 48.2198 19.1615 47.1511 19.1615 45.8327V34.3343C19.1615 33.016 18.0927 31.9473 16.7745 31.9473Z" fill="white"/>
<path d="M40.1084 28.167C38.79 28.167 37.7213 29.2357 37.7213 30.554V38.9116H26.2799V30.554C26.2799 29.2357 25.2112 28.167 23.8929 28.167C22.5746 28.167 21.5059 29.2357 21.5059 30.554V49.6129C21.5059 50.9312 22.5745 51.9999 23.8929 51.9999C25.2112 51.9999 26.2799 50.9312 26.2799 49.6129V41.2554H37.7214V49.6129C37.7214 50.9312 38.7901 51.9999 40.1084 51.9999C41.4268 51.9999 42.4955 50.9312 42.4955 49.6129V30.554C42.4954 29.2357 41.4267 28.167 40.1084 28.167Z" fill="white"/>
</g>
<defs>
<clipPath id="clip0_2956_3953">
<rect width="40" height="40" fill="white" transform="translate(12 12)"/>
</clipPath>
</defs>
</svg>
